{"title":"Real Time With Bill Maher JUST OVERTIME 2013.04.12. XviD","uid":8368662,"size":64840746,"categoryP":"video","categoryS":"tv_shows","magnet":"?xt=urn:btih:718d7cefce2b3392f6e706a7489ed0f0783a87d2&amp;dn=Real+Time+With+Bill+Maher+JUST+OVERTIME+2013.04.12.+XviD+&amp;tr=udp%3A%2F%2Ftracker.openbittorrent.com%3A80&amp;tr=udp%3A%2F%2Fopen.demonii.com%3A1337&amp;tr=udp%3A%2F%2Ftracker.coppersurfer.tk%3A6969&amp;tr=udp%3A%2F%2Fexodus.desync.com%3A6969","seeders":1,"leechers":0,"uploader":null,"files":1,"time":1365845737,"description":"Real.Time.With.Bill.Maher.JUST.OVERTIME.2013.04.12.XviD.avi\n\n\n\nVideo\nID                               : 0\nFormat                           : MPEG-4 Visual\nFormat profile                   : Advanced Simple@L5\nFormat settings, BVOP            : 3\nFormat settings, QPel            : No\nFormat settings, GMC             : No warppoints\nFormat settings, Matrix          : Default (H.263)\nCodec ID                         : XVID\nCodec ID/Hint                    : XviD\nDuration                         : 7mn 6s\nBit rate                         : 1 078 Kbps\nWidth                            : 640 pixels\nHeight                           : 360 pixels\nDisplay aspect ratio             : 16:9\nFrame rate                       : 29.970 fps\nColor space                      : YUV\nChroma subsampling               : 4:2:0\nBit depth                        : 8 bits\nScan type                        : Progressive\nCompression mode                 : Lossy\nBits/(Pixel*Frame)               : 0.156\nStream size                      : 54.7 MiB (89%)\nWriting library                  : XviD 73\n\nAudio\nID                               : 1\nFormat                           : MPEG Audio\nFormat version                   : Version 1\nFormat profile                   : Layer 3\nMode                             : Joint stereo\nMode extension                   : MS Stereo\nCodec ID                         : 55\nCodec ID/Hint                    : MP3\nDuration                         : 7mn 5s\nBit rate mode                    : Constant\nBit rate                         : 128 Kbps\nChannel(s)                       : 2 channels\nSampling rate                    : 44.1 KHz\nCompression mode                 : Lossy\nStream size                      : 6.50 MiB (11%)","torrent":{"xt":"urn:btih:718d7cefce2b3392f6e706a7489ed0f0783a87d2","amp;dn":"Real+Time+With+Bill+Maher+JUST+OVERTIME+2013.04.12.+XviD+","amp;tr":["udp%3A%2F%2Ftracker.openbittorrent.com%3A80","udp%3A%2F%2Fopen.demonii.com%3A1337","udp%3A%2F%2Ftracker.coppersurfer.tk%3A6969","udp%3A%2F%2Fexodus.desync.com%3A6969"],"infoHash":"718d7cefce2b3392f6e706a7489ed0f0783a87d2","infoHashBuffer":{"type":"Buffer","data":[113,141,124,239,206,43,51,146,246,231,6,167,72,158,208,240,120,58,135,210]},"announce":[],"urlList":[]}}